<svg width="32" height="32" viewBox="0 0 32 32" fill="none" xmlns="http://www.w3.org/2000/svg">
<circle cx="16" cy="16" r="16" fill="#EBEBEB"/>
<path d="M18.6724 17.68L16.4224 11.85C16.3558 11.6767 16.2858 11.4767 16.2124 11.25C16.1391 11.0167 16.0691 10.77 16.0024 10.51C15.8624 11.05 15.7191 11.5 15.5724 11.86L13.3224 17.68H18.6724ZM22.7124 23H21.2124C21.0391 23 20.8991 22.9567 20.7924 22.87C20.6858 22.7833 20.6058 22.6733 20.5524 22.54L19.2124 19.08H12.7824L11.4424 22.54C11.4024 22.66 11.3258 22.7667 11.2124 22.86C11.0991 22.9533 10.9591 23 10.7924 23H9.29242L15.0224 8.67H16.9824L22.7124 23Z" fill="black"/>
</svg>
