<svg width="33" height="32" viewBox="0 0 33 32" fill="none" xmlns="http://www.w3.org/2000/svg">
<path d="M0 1.00003H3.61127C3.84303 1.00003 4.04441 1.1593 4.09782 1.38482L5.59268 7.69733M8.6144 22.6053L9.51591 26.8325H27.0452M8.6144 22.6053H25.6333C26.0483 22.6053 26.4202 22.349 26.5679 21.9612L31.7418 8.37528C31.8664 8.04802 31.6247 7.69733 31.2746 7.69733H5.59268M8.6144 22.6053L5.59268 7.69733" stroke="#A6DDCE" stroke-width="2"/>
<path d="M13.5492 28.9334C13.5492 29.6613 12.96 30.25 12.2347 30.25C11.5094 30.25 10.9202 29.6613 10.9202 28.9334C10.9202 28.2056 11.5094 27.6168 12.2347 27.6168C12.96 27.6168 13.5492 28.2056 13.5492 28.9334Z" fill="white" stroke="#A6DDCE" stroke-width="1.5"/>
<path d="M24.379 29.033C24.379 29.7609 23.7898 30.3496 23.0645 30.3496C22.3392 30.3496 21.75 29.7609 21.75 29.033C21.75 28.3052 22.3392 27.7164 23.0645 27.7164C23.7898 27.7164 24.379 28.3052 24.379 29.033Z" fill="white" stroke="#A6DDCE" stroke-width="1.5"/>
</svg>
