<svg width="32" height="32" viewBox="0 0 32 32" fill="none" xmlns="http://www.w3.org/2000/svg">
<mask id="path-1-inside-1_2_205" fill="white">
<path fill-rule="evenodd" clip-rule="evenodd" d="M8.58601 29.3978L0.969734 32L3.56762 25.3948C1.33673 22.716 0 19.3021 0 15.5842C0 6.97726 7.16344 0 16 0C24.8366 0 32 6.97726 32 15.5842C32 24.191 24.8366 31.1683 16 31.1683C13.3245 31.1683 10.8024 30.5287 8.58601 29.3978Z"/>
</mask>
<path fill-rule="evenodd" clip-rule="evenodd" d="M8.58601 29.3978L0.969734 32L3.56762 25.3948C1.33673 22.716 0 19.3021 0 15.5842C0 6.97726 7.16344 0 16 0C24.8366 0 32 6.97726 32 15.5842C32 24.191 24.8366 31.1683 16 31.1683C13.3245 31.1683 10.8024 30.5287 8.58601 29.3978Z" fill="white"/>
<path d="M0.969734 32L1.61635 33.8926L-2.47332 35.2899L-0.891484 31.268L0.969734 32ZM8.58601 29.3978L7.93939 27.5053L8.7407 27.2315L9.49498 27.6163L8.58601 29.3978ZM3.56762 25.3948L5.10446 24.1149L5.86227 25.0248L5.42884 26.1268L3.56762 25.3948ZM0.323117 30.1074L7.93939 27.5053L9.23262 31.2904L1.61635 33.8926L0.323117 30.1074ZM5.42884 26.1268L2.83095 32.732L-0.891484 31.268L1.70641 24.6627L5.42884 26.1268ZM2.03079 26.6747C-0.484863 23.654 -2 19.792 -2 15.5842H2C2 18.8123 3.15833 21.7781 5.10446 24.1149L2.03079 26.6747ZM-2 15.5842C-2 5.82337 6.10885 -2 16 -2V2C8.21804 2 2 8.13116 2 15.5842H-2ZM16 -2C25.8911 -2 34 5.82337 34 15.5842H30C30 8.13116 23.782 2 16 2V-2ZM34 15.5842C34 25.3449 25.8911 33.1683 16 33.1683V29.1683C23.782 29.1683 30 23.0372 30 15.5842H34ZM16 33.1683C13.0028 33.1683 10.1698 32.4512 7.67704 31.1794L9.49498 27.6163C11.4349 28.6061 13.6461 29.1683 16 29.1683V33.1683Z" fill="#A6DDCE" mask="url(#path-1-inside-1_2_205)"/>
</svg>
