<svg width="28" height="32" viewBox="0 0 28 32" fill="none" xmlns="http://www.w3.org/2000/svg">
<mask id="path-1-inside-1_2_208" fill="white">
<path fill-rule="evenodd" clip-rule="evenodd" d="M11.7536 2.11311C11.7536 0.94607 12.6997 0 13.8667 0C15.0337 0 15.9798 0.94607 15.9798 2.11311V3.10633C21.186 3.81111 25.2262 7.93662 25.477 13H25.4893V13.5V22.8003L27.7324 26.4794C28.1387 27.1458 27.659 28 26.8786 28H18.0928C18.0928 30.2091 16.2006 32 13.8665 32C11.5325 32 9.64033 30.2091 9.64033 28H1.0019C0.191529 28 -0.28231 27.0866 0.184365 26.4241L3.30047 22.0004V13.5V13H3.31283C3.5464 8.28474 7.06622 4.38281 11.7536 3.29939V2.11311Z"/>
</mask>
<path fill-rule="evenodd" clip-rule="evenodd" d="M11.7536 2.11311C11.7536 0.94607 12.6997 0 13.8667 0C15.0337 0 15.9798 0.94607 15.9798 2.11311V3.10633C21.186 3.81111 25.2262 7.93662 25.477 13H25.4893V13.5V22.8003L27.7324 26.4794C28.1387 27.1458 27.659 28 26.8786 28H18.0928C18.0928 30.2091 16.2006 32 13.8665 32C11.5325 32 9.64033 30.2091 9.64033 28H1.0019C0.191529 28 -0.28231 27.0866 0.184365 26.4241L3.30047 22.0004V13.5V13H3.31283C3.5464 8.28474 7.06622 4.38281 11.7536 3.29939V2.11311Z" fill="white"/>
<path d="M15.9798 3.10633H13.9798V4.85383L15.7115 5.08825L15.9798 3.10633ZM25.477 13L23.4794 13.0989L23.5736 15H25.477V13ZM25.4893 13H27.4893V11H25.4893V13ZM25.4893 22.8003H23.4893V23.3619L23.7817 23.8414L25.4893 22.8003ZM27.7324 26.4794L29.4401 25.4383L29.4401 25.4383L27.7324 26.4794ZM18.0928 28V26H16.0928V28H18.0928ZM9.64033 28H11.6403V26H9.64033V28ZM0.184365 26.4241L1.81944 27.5759L1.81944 27.5759L0.184365 26.4241ZM3.30047 22.0004L4.93555 23.1521L5.30047 22.6341V22.0004H3.30047ZM3.30047 13V11H1.30047V13H3.30047ZM3.31283 13V15H5.21621L5.31038 13.0989L3.31283 13ZM11.7536 3.29939L12.204 5.24802L13.7536 4.88985V3.29939H11.7536ZM13.8667 -2C11.5951 -2 9.75359 -0.158499 9.75359 2.11311H13.7536C13.7536 2.05064 13.8042 2 13.8667 2V-2ZM17.9798 2.11311C17.9798 -0.1585 16.1383 -2 13.8667 -2V2C13.9292 2 13.9798 2.05064 13.9798 2.11311H17.9798ZM17.9798 3.10633V2.11311H13.9798V3.10633H17.9798ZM27.4745 12.9011C27.1718 6.79002 22.3216 1.9466 16.2481 1.12441L15.7115 5.08825C20.0503 5.67561 23.2805 9.08322 23.4794 13.0989L27.4745 12.9011ZM25.4893 11H25.477V15H25.4893V11ZM27.4893 13.5V13H23.4893V13.5H27.4893ZM27.4893 22.8003V13.5H23.4893V22.8003H27.4893ZM29.4401 25.4383L27.197 21.7592L23.7817 23.8414L26.0247 27.5206L29.4401 25.4383ZM26.8786 30C29.2199 30 30.6589 27.4375 29.4401 25.4383L26.0247 27.5206C25.6185 26.8542 26.0981 26 26.8786 26V30ZM18.0928 30H26.8786V26H18.0928V30ZM16.0928 28C16.0928 29.0023 15.2011 30 13.8665 30V34C17.2001 34 20.0928 31.4159 20.0928 28H16.0928ZM13.8665 30C12.5319 30 11.6403 29.0023 11.6403 28H7.64033C7.64033 31.4159 10.533 34 13.8665 34V30ZM1.0019 30H9.64033V26H1.0019V30ZM-1.45071 25.2724C-2.85073 27.2599 -1.42921 30 1.0019 30V26C1.81227 26 2.28611 26.9134 1.81944 27.5759L-1.45071 25.2724ZM1.6654 20.8486L-1.45071 25.2724L1.81944 27.5759L4.93555 23.1521L1.6654 20.8486ZM1.30047 13.5V22.0004H5.30047V13.5H1.30047ZM1.30047 13V13.5H5.30047V13H1.30047ZM3.31283 11H3.30047V15H3.31283V11ZM11.3032 1.35077C5.82628 2.61667 1.5971 7.21165 1.31528 12.9011L5.31038 13.0989C5.4957 9.35782 8.30615 6.14895 12.204 5.24802L11.3032 1.35077ZM9.75359 2.11311V3.29939H13.7536V2.11311H9.75359Z" fill="#A6DDCE" mask="url(#path-1-inside-1_2_208)"/>
</svg>
