<svg width="85" height="27" viewBox="0 0 85 27" fill="none" xmlns="http://www.w3.org/2000/svg">
                    <g clip-path="url(#clip0_1_14)">
                    <path d="M8.368 21.416C6.768 21.416 5.40267 21.128 4.272 20.552C3.14133 19.9547 2.27733 19.1227 1.68 18.056C1.104 16.968 0.816 15.7093 0.816 14.28V11.656H3.408V14.056C3.408 15.7627 3.87733 17.0533 4.816 17.928C5.776 18.7813 6.96 19.208 8.368 19.208C9.776 19.208 10.9493 18.7813 11.888 17.928C12.848 17.0533 13.328 15.7627 13.328 14.056V11.656H15.952V14.28C15.952 15.7093 15.6533 16.968 15.056 18.056C14.48 19.1227 13.6267 19.9547 12.496 20.552C11.3653 21.128 9.98933 21.416 8.368 21.416ZM3.408 12.968H0.816V1.608C0.922667 1.56533 1.08267 1.52267 1.296 1.48C1.53067 1.416 1.776 1.384 2.032 1.384C2.50133 1.384 2.84267 1.48 3.056 1.672C3.29067 1.84267 3.408 2.14133 3.408 2.568V12.968ZM15.952 12.968H13.328V1.608C13.4347 1.56533 13.5947 1.52267 13.808 1.48C14.0427 1.416 14.288 1.384 14.544 1.384C15.0133 1.384 15.3653 1.48 15.6 1.672C15.8347 1.84267 15.952 2.14133 15.952 2.568V12.968ZM31.6133 17.064C31.6133 18.4293 31.1119 19.496 30.1093 20.264C29.1066 21.032 27.6559 21.416 25.7573 21.416C24.1359 21.416 22.8133 21.1707 21.7893 20.68C20.7653 20.168 20.2533 19.6133 20.2533 19.016C20.2533 18.76 20.3173 18.5147 20.4453 18.28C20.5946 18.024 20.8079 17.8213 21.0853 17.672C21.6613 18.0773 22.3333 18.4507 23.1013 18.792C23.8693 19.1333 24.7439 19.304 25.7253 19.304C27.9439 19.304 29.0533 18.5573 29.0533 17.064C29.0533 16.4453 28.8613 15.944 28.4773 15.56C28.1146 15.1547 27.5706 14.8667 26.8453 14.696L24.1893 13.992C22.8879 13.672 21.9386 13.1813 21.3413 12.52C20.7439 11.8373 20.4453 10.9947 20.4453 9.992C20.4453 8.86133 20.9039 7.88 21.8213 7.048C22.7386 6.216 24.1359 5.8 26.0133 5.8C27.0159 5.8 27.8906 5.90667 28.6373 6.12C29.3839 6.312 29.9599 6.57867 30.3653 6.92C30.7919 7.24 31.0053 7.592 31.0053 7.976C31.0053 8.25333 30.9306 8.49867 30.7813 8.712C30.6533 8.92533 30.4719 9.08533 30.2373 9.192C29.9813 9.02133 29.6506 8.84 29.2453 8.648C28.8613 8.43467 28.4026 8.264 27.8693 8.136C27.3359 7.98667 26.7493 7.912 26.1093 7.912C25.1706 7.912 24.4133 8.09333 23.8373 8.456C23.2613 8.81867 22.9733 9.33067 22.9733 9.992C22.9733 10.4613 23.1333 10.8773 23.4533 11.24C23.7946 11.5813 24.3279 11.8373 25.0533 12.008L27.2613 12.552C28.7119 12.8933 29.7999 13.4373 30.5253 14.184C31.2506 14.9093 31.6133 15.8693 31.6133 17.064ZM48.3258 14.632H45.7658V11.688C45.7658 10.408 45.4031 9.45867 44.6778 8.84C43.9738 8.22133 43.0564 7.912 41.9258 7.912C41.0938 7.912 40.3151 8.072 39.5898 8.392C38.8858 8.712 38.2884 9.096 37.7977 9.544L37.3177 7.464C37.8298 7.10133 38.5018 6.73867 39.3338 6.376C40.1871 5.992 41.1684 5.8 42.2778 5.8C44.0484 5.8 45.4991 6.28 46.6298 7.24C47.7604 8.2 48.3258 9.66133 48.3258 11.624V14.632ZM35.5578 12.552H38.1178V20.936C38.0111 20.9787 37.8511 21.0213 37.6378 21.064C37.4244 21.128 37.1898 21.16 36.9338 21.16C36.4858 21.16 36.1444 21.0747 35.9098 20.904C35.6751 20.712 35.5578 20.4133 35.5578 20.008V12.552ZM45.7658 12.584L48.3258 12.616V20.936C48.2191 20.9787 48.0484 21.0213 47.8138 21.064C47.6004 21.128 47.3764 21.16 47.1418 21.16C46.6724 21.16 46.3204 21.0747 46.0858 20.904C45.8724 20.712 45.7658 20.4133 45.7658 20.008V12.584ZM38.1178 13.8H35.5578V0.263998C35.6644 0.221331 35.8244 0.178664 36.0378 0.135998C36.2724 0.0719973 36.5178 0.0399971 36.7738 0.0399971C37.2218 0.0399971 37.5524 0.135997 37.7658 0.327997C38.0004 0.498664 38.1178 0.786664 38.1178 1.192V13.8ZM77.1103 21.416C78.5183 21.416 79.7663 21.128 80.8543 20.552C81.9423 19.976 82.7849 19.112 83.3823 17.96C84.0009 16.7867 84.3103 15.3253 84.3103 13.576C84.3103 11.7627 83.9689 10.2907 83.2863 9.16C82.6249 8.008 81.7183 7.16533 80.5663 6.632C79.4356 6.07733 78.1663 5.8 76.7583 5.8C75.7343 5.8 74.8169 5.93867 74.0063 6.216C73.2169 6.472 72.5343 6.76 71.9583 7.08C71.4889 7.35733 71.1796 7.624 71.0303 7.88C70.8809 8.136 70.8063 8.47733 70.8063 8.904V19.464H73.3663V8.84C73.7929 8.60533 74.2729 8.392 74.8063 8.2C75.3396 8.008 75.9903 7.912 76.7583 7.912C77.6329 7.912 78.4436 8.09333 79.1903 8.456C79.9583 8.81867 80.5663 9.416 81.0143 10.248C81.4836 11.0587 81.7183 12.168 81.7183 13.576C81.7183 15.5813 81.2596 17.0427 80.3423 17.96C79.4463 18.856 78.2516 19.304 76.7583 19.304C75.8409 19.304 75.0516 19.1547 74.3903 18.856C73.7503 18.536 73.2169 18.1733 72.7903 17.768V20.136C73.1529 20.456 73.7289 20.744 74.5183 21C75.3289 21.2773 76.1929 21.416 77.1103 21.416ZM73.3663 18.6L70.8063 18.536V25.8C70.8063 26.2053 70.9236 26.504 71.1583 26.696C71.3929 26.888 71.7343 26.984 72.1823 26.984C72.4383 26.984 72.6729 26.952 72.8863 26.888C73.0996 26.8453 73.2596 26.8027 73.3663 26.76V18.6Z" fill="#D8C4A9"/>
                    <g clip-path="url(#clip1_1_14)">
                    <path d="M67.5877 15.2895C67.7209 14.825 67.4522 14.3404 66.9877 14.2073C66.5232 14.0741 66.0386 14.3427 65.9055 14.8073L67.5877 15.2895ZM53.1971 14.8577L53.0064 14.0037L51.2985 14.3851L51.4891 15.239L53.1971 14.8577ZM65.9055 14.8073C64.7775 18.7418 61.9463 20.3644 59.2945 20.2616C56.6099 20.1576 53.963 18.2882 53.1971 14.8577L51.4891 15.239C52.4289 19.4479 55.7518 21.8757 59.2267 22.0103C62.7342 22.1463 66.2519 19.9493 67.5877 15.2895L65.9055 14.8073Z" fill="#95CE97"/>
                    <path d="M66.9672 15.4417C67.3431 15.2677 67.5084 14.821 67.3366 14.4442C67.1647 14.0673 66.7206 13.9029 66.3448 14.077L66.9672 15.4417ZM63.6162 15.3407C63.2404 15.5148 63.075 15.9615 63.2469 16.3383C63.4188 16.7152 63.8628 16.8796 64.2387 16.7055L63.6162 15.3407ZM66.3448 14.077L63.6162 15.3407L64.2387 16.7055L66.9672 15.4417L66.3448 14.077Z" fill="#95CE97"/>
                    <path d="M67.0165 14.8866L67.9993 18.0303" stroke="#95CE97" stroke-width="1.5" stroke-linecap="round"/>
                    <path d="M51.4115 11.8517C51.2783 12.3163 51.547 12.8008 52.0115 12.934C52.476 13.0672 52.9606 12.7985 53.0937 12.334L51.4115 11.8517ZM65.8021 12.2835L65.9928 13.1375L67.7008 12.7562L67.5101 11.9022L65.8021 12.2835ZM53.0937 12.334C54.2217 8.39947 57.0529 6.77682 59.7048 6.8796C62.3893 6.98365 65.0362 8.85309 65.8021 12.2835L67.5101 11.9022C66.5703 7.69331 63.2474 5.2656 59.7725 5.13092C56.265 4.99497 52.7473 7.19199 51.4115 11.8517L53.0937 12.334Z" fill="#95CE97"/>
                    <path d="M52.032 11.6995C51.6562 11.8736 51.4908 12.3202 51.6627 12.6971C51.8346 13.0739 52.2786 13.2383 52.6545 13.0643L52.032 11.6995ZM55.383 11.8005C55.7589 11.6264 55.9242 11.1798 55.7523 10.8029C55.5805 10.4261 55.1364 10.2617 54.7606 10.4357L55.383 11.8005ZM52.6545 13.0643L55.383 11.8005L54.7606 10.4357L52.032 11.6995L52.6545 13.0643Z" fill="#95CE97"/>
                    <path d="M51.9828 12.2547L51 9.11099" stroke="#95CE97" stroke-width="1.5" stroke-linecap="round"/>
                    </g>
                    </g>
                    <defs>
                    <clipPath id="clip0_1_14">
                    <rect width="85" height="27" fill="white"/>
                    </clipPath>
                    <clipPath id="clip1_1_14">
                    <rect width="19" height="18" fill="white" transform="translate(50 5)"/>
                    </clipPath>
                    </defs>
</svg>